<svg width="400" height="300" viewBox="0 0 400 300" fill="none" xmlns="http://www.w3.org/2000/svg">
  <!-- Sky -->
  <rect width="400" height="300" fill="#87CEEB"/>
  
  <!-- Mountains -->
  <path d="M0 150 L80 100 L160 130 L240 90 L320 120 L400 100 L400 300 L0 300 Z" fill="#8D6E63"/>
  
  <!-- Water body -->
  <ellipse cx="200" cy="220" rx="150" ry="40" fill="#2196F3"/>
  
  <!-- Watershed streams -->
  <path d="M80 130 Q120 160 160 180 Q180 200 200 220" stroke="#2196F3" stroke-width="3" fill="none"/>
  <path d="M240 110 Q260 140 280 160 Q290 180 200 220" stroke="#2196F3" stroke-width="3" fill="none"/>
  
  <!-- Trees -->
  <g fill="#4CAF50">
    <circle cx="100" cy="170" r="12"/>
    <circle cx="130" cy="165" r="10"/>
    <circle cx="270" cy="160" r="14"/>
    <circle cx="300" cy="155" r="11"/>
  </g>
  <g fill="#8D6E63">
    <rect x="98" y="170" width="4" height="15"/>
    <rect x="128" y="165" width="4" height="15"/>
    <rect x="268" y="160" width="4" height="15"/>
    <rect x="298" y="155" width="4" height="15"/>
  </g>
  
  <!-- Text overlay -->
  <rect x="20" y="20" width="220" height="60" fill="rgba(255,255,255,0.9)" rx="5"/>
  <text x="30" y="45" font-family="Arial, sans-serif" font-size="16" font-weight="bold" fill="#1976D2">California Watershed</text>
  <text x="30" y="65" font-family="Arial, sans-serif" font-size="12" fill="#666">Groundwater recharge project</text>
</svg>