<svg width="400" height="300" viewBox="0 0 400 300" fill="none" xmlns="http://www.w3.org/2000/svg">
  <!-- Sky -->
  <rect width="400" height="300" fill="#87CEEB"/>
  
  <!-- Rolling hills -->
  <path d="M0 200 Q100 180 200 200 T400 200 L400 300 L0 300 Z" fill="#6FBF73"/>
  <path d="M0 220 Q150 200 300 220 L400 220 L400 300 L0 300 Z" fill="#4CAF50"/>
  
  <!-- Prairie grass -->
  <g stroke="#2E7D32" stroke-width="2" fill="none">
    <path d="M50 200 Q52 190 50 180 Q48 190 50 200"/>
    <path d="M80 210 Q82 195 80 185 Q78 195 80 210"/>
    <path d="M120 205 Q122 192 120 182 Q118 192 120 205"/>
    <path d="M180 200 Q182 188 180 178 Q178 188 180 200"/>
    <path d="M220 215 Q222 200 220 190 Q218 200 220 215"/>
    <path d="M280 205 Q282 192 280 182 Q278 192 280 205"/>
    <path d="M320 210 Q322 195 320 185 Q318 195 320 210"/>
  </g>
  
  <!-- Wildflowers -->
  <circle cx="100" cy="195" r="3" fill="#FF6B9D"/>
  <circle cx="160" cy="205" r="3" fill="#C77DFF"/>
  <circle cx="240" cy="200" r="3" fill="#FFEB3B"/>
  <circle cx="300" cy="195" r="3" fill="#FF6B9D"/>
  
  <!-- Text overlay -->
  <rect x="20" y="20" width="200" height="60" fill="rgba(255,255,255,0.9)" rx="5"/>
  <text x="30" y="45" font-family="Arial, sans-serif" font-size="16" font-weight="bold" fill="#2E7D32">Prairie Restoration</text>
  <text x="30" y="65" font-family="Arial, sans-serif" font-size="12" fill="#666">Native grassland ecosystem</text>
</svg>